<?xml version="1.0" encoding="UTF-8"?>
<!DOCTYPE svg PUBLIC "-//W3C//DTD SVG 1.1//EN" "http://www.w3.org/Graphics/SVG/1.1/DTD/svg11.dtd">
<svg
  xmlns             = "http://www.w3.org/2000/svg"
  version           = "1.1"
  width             = "528"
  height            = "80"
  viewBox           = "0 0 528 80">
  <path
    stroke          = "black"
    stroke-width    = "6"
    stroke-linejoin = "bevel"
    fill            = "none"
    d               = "

    M 3,76
    l 0,-72
    l 48,72
    l 0,-72

    M 71,28
    l 0,28
    a 18,18 0 1,0 36,0
    l 0,-28

    M 147,52
    m 19.052559,-11
    a 22,22 0 1,0 0,22

    M 183,4
    l 0,72

    M 223,52
    m -19.052559,11
    l 38.105118,-22
    a 22,22 0 1,0 0,22

    M 279,52
    m 22,0
    a 22,22 0 1,0 -44,0
    a 22,22 0 1,0 44,0

    M 323,8
    l 0,52
    a 12,12 0 0,0 12,12
    l 2,0
    m -28,-40
    l 28,0

    M 351,28
    l 0,48

    M 413,52
    a 22,22 0 1,0 -44,0
    a 22,22 0 1,0 44,0
    m 0,-48
    l 0,72

    M 451,52
    m -19.052559,11
    l 38.105118,-22
    a 22,22 0 1,0 0,22

    M 503,52
    m 19.052559,-11
    a 22,22 0 0,0 -38.105118,0
    l 38.105118,22
    a 22,22 0 0,1 -38.105118,0

    " />
  <circle
    cx    = "351"
    cy    = "16"
    r     = "5"
    fill  = "black" />
</svg>
